<?xml version="1.0" encoding="UTF-8"?>
<svg id="Lag_2" xmlns="http://www.w3.org/2000/svg" xmlns:xlink="http://www.w3.org/1999/xlink" viewBox="0 0 266.66 172.15">
  <defs>
    <style>
      .cls-1 {
        fill: #ccc;
      }

      .cls-1, .cls-2, .cls-3, .cls-4, .cls-5, .cls-6, .cls-7, .cls-8, .cls-9, .cls-10 {
        fill-rule: evenodd;
      }

      .cls-1, .cls-3, .cls-11, .cls-5, .cls-9, .cls-10 {
        stroke: #000;
        stroke-linecap: round;
        stroke-linejoin: round;
        stroke-width: 3.54px;
      }

      .cls-2 {
        fill: #fff;
      }

      .cls-3 {
        fill: gray;
      }

      .cls-11 {
        fill: none;
      }

      .cls-4 {
        fill: url(#Ikke-navngivet_forløb_2);
      }

      .cls-5 {
        fill: #dec44f;
      }

      .cls-6 {
        fill: #ff9;
      }

      .cls-7 {
        fill: #b3b3b3;
      }

      .cls-9 {
        fill: #999;
      }

      .cls-10 {
        fill: #666;
      }
    </style>
    <linearGradient id="Ikke-navngivet_forløb_2" data-name="Ikke-navngivet forløb 2" x1="35.46" y1="1303.59" x2="36.24" y2="1303.59" gradientTransform="translate(-2778.21 -55989.43) rotate(1.55) scale(125.51 42.96)" gradientUnits="userSpaceOnUse">
      <stop offset="0" stop-color="#666"/>
      <stop offset="1" stop-color="#fff"/>
    </linearGradient>
  </defs>
  <g id="svg5886">
    <g id="layer3">
      <g>
        <path id="path6580" class="cls-3" d="M209,1.77h3.51c4.84,8.9,15.83,2.98,15.83,6.61v6.61h-19.34V1.77Z"/>
        <path id="path6582" class="cls-3" d="M31.55,23.51H3.38l3.36,19.13h35.26l-10.45-19.13h0ZM15.04,29.29c2.09,0,3.78,1.69,3.78,3.78s-1.69,3.78-3.78,3.78-3.78-1.69-3.78-3.78,1.69-3.78,3.78-3.78Z"/>
        <path id="path6584" class="cls-9" d="M72.52,73.64h7.79c.53,6.98,3.32,11.91,7.14,15.91-1.51.59-3.03,1.18-4.54,1.77-5.38-3.94-9.39-9.27-10.39-17.68Z"/>
        <path id="path6586" class="cls-10" d="M18.25,47.24h107.6v54.02H58c.46-42.68-39.52-42.87-39.75-54.02ZM68.46,77.8c8.93-9.69,36.7,1.54,34.61,9.15-3.57,12.95-27.29,11.41-32.75,4.04-3.58-4.84-3.66-11.23-1.86-13.18Z"/>
        <path id="path6588" class="cls-10" d="M92.72,19.56h36.27v27.45h-36.27v-27.45Z"/>
        <path id="path6590" class="cls-3" d="M125.07,15.8h103.26v85.46h-103.26V15.8Z"/>
        <path id="path6592" class="cls-3" d="M137.5,115.68h84.63v-14.42h-84.63v14.42h0Z"/>
        <path id="path6594" class="cls-3" d="M35.39,14.38h76.32l-18.7,32.62H16.69L35.39,14.38Z"/>
        <path id="path6596" class="cls-3" d="M36.37,27.16h32.79l-8.03,14.02H28.34l8.03-14.02Z"/>
        <path id="path6598" class="cls-7" d="M38.02,17.88h67.05l-3.04,5.07H34.97l3.04-5.07h0Z"/>
        <path id="path6600" class="cls-10" d="M127.64,26.3h32.28v62.94h-32.28c-14.15,0-25.73-14.16-25.73-31.47h0c0-17.31,11.58-31.47,25.73-31.47Z"/>
        <path id="path6602" class="cls-1" d="M205.16,24.21h29.8v65.98h-29.8V24.21Z"/>
        <path id="path6604" class="cls-2" d="M208.15,28h23.4v8.93h-23.4v-8.93Z"/>
        <path id="path6606" class="cls-5" d="M236.09,29.02h10.31v20.81h-10.31v-20.81Z"/>
        <path id="path6608" class="cls-6" d="M238.13,31.92h6.23v4.63h-6.23v-4.63Z"/>
        <path id="path6610" class="cls-5" d="M205.16,23.44h-20.45v67.51h20.45V23.44h0Z"/>
        <path id="path6612" class="cls-6" d="M187.64,62.65h14.59v8.17h-14.59v-8.17Z"/>
        <path id="path6614" class="cls-6" d="M187.64,31.41h14.59v8.17h-14.59v-8.17Z"/>
        <path id="path6616" class="cls-5" d="M184.57,23.44h-48.52v67.51h48.52V23.44h0Z"/>
        <path id="path6618" class="cls-5" d="M126.7,23.44h9.36v67.51h-9.36V23.44h0Z"/>
        <path id="path6620" class="cls-5" d="M126.7,29.2h9.36v55.99h-9.36V29.2h0Z"/>
        <path id="path6622" class="cls-5" d="M126.7,37.52h9.36v39.35h-9.36v-39.35Z"/>
        <path id="path6624" class="cls-5" d="M126.7,50h9.36v14.4h-9.36v-14.4Z"/>
        <path id="path6626" class="cls-5" d="M184.57,37.1h-48.52v20.35h48.52v-20.35Z"/>
        <path id="path6628" class="cls-5" d="M184.57,57.94h-48.52v20.35h48.52v-20.35h0Z"/>
        <path id="path6630" class="cls-6" d="M140.32,27.96h40.73v3.31h-40.73v-3.31Z"/>
        <path id="path6632" class="cls-6" d="M140.32,41.38h40.73v5.81h-40.73v-5.81Z"/>
        <path id="path6634" class="cls-6" d="M140.32,62.22h40.73v5.81h-40.73v-5.81Z"/>
        <path id="path6636" class="cls-10" d="M1.77,137.63c2.69-3.93,5.3-9.84,10.62-13.87,4.74-3.59,9.51.34,10.54-.58,10-8.86,25.38-20.4,36.59-22.16h17.88v14.23c-13.89,7.54-24.38,34.01-24.24,55.11-28.29-2.8-49.61-25.48-51.39-32.75h0Z"/>
        <path id="path6638" class="cls-5" d="M27.28,132.82c2.02,4.36,4.51,8.35,7.4,11.95.6.75-2.54,6.85-1.91,7.56,2.7,3.03,5.72,5.74,9.02,8.11,3.3,2.37,6.87,4.41,10.69,6.08.29-2.21,3.87-3.38,4.29-5.64.42-2.26-2.31-5.61-1.75-7.87.56-2.26,1.2-4.51,1.92-6.73.72-2.22,4.2-2.25,5.09-4.37.88-2.12-.83-6.34.23-8.33,1.06-1.98,2.21-3.89,3.46-5.69,1.25-1.8,5.28-.8,6.73-2.37,1.45-1.56,1.15-17.75,32.27-24.51l-20.91.07c-20.62,0-42.17,17.36-56.53,31.72h0Z"/>
        <path id="path6640" class="cls-1" d="M16.21,132.27c2.83,0,5.12,2.29,5.12,5.12s-2.29,5.12-5.12,5.12-5.12-2.29-5.12-5.12,2.29-5.12,5.12-5.12Z"/>
        <path id="path6642" class="cls-1" d="M90.22,58.26c2.83,0,5.12,2.29,5.12,5.12s-2.29,5.12-5.12,5.12-5.12-2.29-5.12-5.12,2.29-5.12,5.12-5.12Z"/>
        <path id="path6644" class="cls-1" d="M69.66,58.26c2.83,0,5.12,2.29,5.12,5.12s-2.29,5.12-5.12,5.12-5.12-2.29-5.12-5.12,2.29-5.12,5.12-5.12Z"/>
        <g id="g6646">
          <g id="g6648">
            <g id="g6654">
              <path id="path6662" class="cls-4" d="M264.89,114.05c-4.09,8.13-10.1,12.61-16.38,16.58-1.49-6.27-7.36-7.56-14.33-4.14-3.82-4.66-9.15-6.22-15.97-1.55-3-3.63-12.42-4.15-15.56,1.55-6.93-7.39-10.55-5.06-16.38,0-5.39-3.45-10.58-5.01-21.29-5.18-6.96.35-14.33.17-21.29.52.41-2.59.82-5.18,1.23-7.77h89.99c5.77.51,13.17-7.18,6.37-14.37,10.71,1.03,16.97,6.67,23.62,14.37"/>
            </g>
          </g>
        </g>
        <path id="path6664" class="cls-11" d="M264.89,114.05c-4.09,8.13-10.1,12.61-16.38,16.58-1.49-6.27-7.36-7.56-14.33-4.14-3.82-4.66-9.15-6.22-15.97-1.55-3-3.63-12.42-4.15-15.56,1.55-6.93-7.39-10.55-5.06-16.38,0-5.39-3.45-10.58-5.01-21.29-5.18-6.96.35-14.33.17-21.29.52.41-2.59.82-5.18,1.23-7.77h89.99c5.77.51,13.17-7.18,6.37-14.37,10.71,1.03,16.97,6.67,23.62,14.37h0Z"/>
        <path id="path6666" class="cls-8" d="M54.87,116.8c3.32,4.24,8.15,9.1,13.67,10.02-1.27,1.29-3.37,3.4-4.64,4.69-5.36-3.49-8.09-10.12-9.03-14.71"/>
        <path id="path6668" class="cls-8" d="M45.77,134.58c3.32,4.24,8.15,9.1,13.67,10.02-1.27,1.29-3.37,3.4-4.64,4.69-5.36-3.49-8.09-10.12-9.03-14.71"/>
        <path id="path6670" class="cls-10" d="M118.45,101.26h32.66v10.96c0,6.03-4.94,10.96-10.96,10.96-20,0-11.42-16.33-21.7-21.93Z"/>
        <path id="path6672" class="cls-1" d="M138.73,108.34c2.39,0,4.33,1.94,4.33,4.33s-1.94,4.33-4.33,4.33-4.33-1.94-4.33-4.33,1.94-4.33,4.33-4.33Z"/>
        <path id="path6674" class="cls-5" d="M39.51,54.66c15.7,0,15.42,2.15,15.42,4.8s.28,4.8-15.42,4.8-28.44-2.15-28.44-4.8,12.74-4.8,28.44-4.8Z"/>
      </g>
    </g>
  </g>
</svg>