<?xml version="1.0" encoding="UTF-8"?>
<svg id="Lag_2" xmlns="http://www.w3.org/2000/svg" viewBox="0 0 248.77 136.86">
  <defs>
    <style>
      .cls-1 {
        fill: #ccc;
      }

      .cls-1, .cls-2, .cls-3, .cls-4, .cls-5, .cls-6, .cls-7, .cls-8, .cls-9 {
        fill-rule: evenodd;
      }

      .cls-1, .cls-3, .cls-4, .cls-5, .cls-8, .cls-9 {
        stroke: #000;
        stroke-linecap: round;
        stroke-linejoin: round;
        stroke-width: 3.54px;
      }

      .cls-2 {
        fill: #fff;
      }

      .cls-3 {
        fill: gray;
      }

      .cls-4, .cls-7 {
        fill: #b3b3b3;
      }

      .cls-5 {
        fill: #dec44f;
      }

      .cls-6 {
        fill: #ff9;
      }

      .cls-8 {
        fill: #999;
      }

      .cls-9 {
        fill: #666;
      }
    </style>
  </defs>
  <g id="svg5886">
    <g id="layer3">
      <g>
        <path id="path5976" class="cls-5" d="M221.5,4.96h4c5.53,10.15,18.07,3.4,18.07,7.55v7.55h-22.07V4.96h0Z"/>
        <path id="path5978" class="cls-5" d="M68.08,80.61h7.79c.53,5.13,3.32,8.75,7.14,11.68-1.51.43-3.03.87-4.54,1.3-5.38-2.89-9.39-6.81-10.39-12.98h0Z"/>
        <path id="path5980" class="cls-5" d="M111.45,57.56h61.41v12.73h-61.41v-12.73Z"/>
        <path id="path5982" class="cls-6" d="M114.31,59.34h55.68v2.83h-55.68v-2.83Z"/>
        <path id="path5984" class="cls-5" d="M28.38,9.56c3.89-2.6,7.79-5.19,11.68-7.79,6.55,10.57,13.31,15.58,18.35,5.05l8.22.04c0,2.6-2.55,5.94-2.55,8.54-1.3,1.51-3.65,6.79-4.95,8.3-12.01,2.4-15.5-1.74-20.37-12.19-2.6,1.3-5.19,2.6-7.79,3.89,0,0-3.25-5.84-2.6-5.84h0Z"/>
        <path id="path5986" class="cls-1" d="M65.88,6.96h43.73l17.11,5.81v45.13c-8.45,1.95-14.73,7.14-14.49,11.68h-54.32V18.93c5.79-3.99,5.07-7.98,7.97-11.96h0Z"/>
        <path id="path5988" class="cls-9" d="M72.52,14.72h22.4v43.66h-22.4c-9.82,0-17.85-9.82-17.85-21.83h0c0-12.01,8.03-21.83,17.85-21.83Z"/>
        <path id="path5990" class="cls-1" d="M126.3,16.06h120.69v20.13h-120.69v-20.13Z"/>
        <path id="path5992" class="cls-2" d="M128.32,19.93h116.65v6.19h-116.65v-6.19Z"/>
        <path id="path5994" class="cls-5" d="M126.3,36.34h69.55v20.81h-69.55v-20.81Z"/>
        <path id="path5996" class="cls-6" d="M129.55,39.24h63.06v4.63h-63.06v-4.63Z"/>
        <path id="path5998" class="cls-3" d="M126.3,12.73h-14.18v46.84h14.18V12.73h0Z"/>
        <path id="path6000" class="cls-7" d="M114.15,39.93h10.12v5.67h-10.12v-5.67Z"/>
        <path id="path6002" class="cls-7" d="M114.15,18.26h10.12v5.67h-10.12v-5.67Z"/>
        <path id="path6004" class="cls-4" d="M112.02,12.73h-33.66v46.84h33.66V12.73h0Z"/>
        <path id="path6006" class="cls-3" d="M71.87,12.73h6.49v46.84h-6.49V12.73h0Z"/>
        <path id="path6008" class="cls-4" d="M112.02,26.23h-33.66v19.85h33.66v-19.85Z"/>
        <path id="path6010" class="cls-2" d="M82.99,16.9h24.91v5.67h-24.91v-5.67Z"/>
        <path id="path6012" class="cls-2" d="M82.99,30.4h24.91v5.67h-24.91v-5.67Z"/>
        <path id="path6014" class="cls-5" d="M66.03,57.41c2.39,0,4.33,1.94,4.33,4.33s-1.94,4.33-4.33,4.33-4.33-1.94-4.33-4.33,1.94-4.33,4.33-4.33Z"/>
        <path id="path6016" class="cls-5" d="M104.18,84.86c-.65,25.47-41.45,24.75-46.05,10.39-.18-5.19-.35-10.39-.53-15.58v-8.79h54.53c1.05,5.73.4,11.09-7.94,13.98h0ZM64.02,80.67c9.58.22,25.86.02,34.61.24-2.25,19.9-27.29,20.32-32.75,12.95-3.58-4.85-2.37-10.57-1.86-13.18Z"/>
        <path id="path6018" class="cls-9" d="M56.46,49.17l-19.85,19.85h19.85v-19.85Z"/>
        <path id="path6020" class="cls-8" d="M1.77,102.82c7.11-10.39,19.02-20.39,33.78-32.42h21.59v18.05c-11.75,6.38-20.64,28.78-20.52,46.65C12.68,132.72,3.28,108.97,1.77,102.82h0Z"/>
        <path id="path6022" class="cls-5" d="M9.71,103.97c1.83,3.95,5.03,8.72,7.2,11.42,3.6,4.47,8.01,8.46,13.22,10.74,1.96-14.95,8.7-32.81,19.92-41.49v-7.16h-11.98c-5.93,4.84-11.86,9.74-17.46,14.93-3.82,3.55-7.66,7.39-10.91,11.56Z"/>
        <path id="path6024" class="cls-1" d="M25.82,108.29c2.39,0,4.33,1.94,4.33,4.33s-1.94,4.33-4.33,4.33-4.33-1.94-4.33-4.33,1.94-4.33,4.33-4.33h0Z"/>
        <path id="path6026" class="cls-5" d="M152.2,16.06h11.39v21.47h-11.39v-21.47Z"/>
        <path id="path6028" class="cls-6" d="M155.45,20.19h4.89v6.61h-4.89v-6.61Z"/>
        <path id="path6030" class="cls-5" d="M152.2,35.91h11.39v21.47h-11.39v-21.47Z"/>
        <path id="path6032" class="cls-6" d="M155.45,40.04h4.89v6.61h-4.89v-6.61Z"/>
      </g>
    </g>
  </g>
</svg>